<svg width="64" height="64" viewBox="0 0 40 40" xmlns="http://www.w3.org/2000/svg">
  <defs>
    <linearGradient id="ms-cloud" x1="0" y1="0" x2="1" y2="1">
      <stop offset="0%" stop-color="#38bdf8" />
      <stop offset="50%" stop-color="#6366f1" />
      <stop offset="100%" stop-color="#ec4899" />
    </linearGradient>
  </defs>
  <rect x="2" y="2" width="36" height="36" rx="10" fill="#020617" />
  <path
    d="M11 23c0-3.3 2.7-6 6-6 .5-3.2 3.3-5.5 6.6-5.5 3.7 0 6.8 3 6.8 6.8 2.4.5 4.2 2.6 4.2 5.1 0 2.9-2.4 5.3-5.3 5.3H15.5C12.8 28.7 11 26.3 11 23z"
    fill="url(#ms-cloud)"
  />
  <path
    d="M16 16.5 12.5 20 16 23.5"
    fill="none"
    stroke="#0f172a"
    stroke-width="2"
    stroke-linecap="round"
    stroke-linejoin="round"
  />
  <path
    d="M24 16.5 27.5 20 24 23.5"
    fill="none"
    stroke="#0f172a"
    stroke-width="2"
    stroke-linecap="round"
    stroke-linejoin="round"
  />
</svg>

